# MagicaVoxel @ ephtracy

# material
mtllib _untitled.mtl

# normals
vn -1 0 0
vn 1 0 0
vn 0 0 1
vn 0 0 -1
vn 0 -1 0
vn 0 1 0

# texcoords
vt 0.705078 0.5
vt 0.919922 0.5
vt 0.994141 0.5

# verts
v -5.5 0 4.5
v -5.5 1 4.5
v -5.5 1 3.5
v -5.5 0 3.5
v -0.5 0 -7.5
v -0.5 1 -7.5
v -0.5 1 -8.5
v -0.5 0 -8.5
v -7.5 0 7.5
v -7.5 1 7.5
v -7.5 1 6.5
v -7.5 0 6.5
v 3.5 0 7.5
v 3.5 1 7.5
v 3.5 1 6.5
v 3.5 0 6.5
v -1.5 0 -5.5
v -1.5 1 -5.5
v -1.5 1 -6.5
v -1.5 0 -6.5
v -7.5 0 8.5
v -7.5 1 8.5
v -2.5 0 -3.5
v -2.5 1 -3.5
v -2.5 1 -4.5
v -2.5 0 -4.5
v -8.5 0 -2.5
v -8.5 1 -2.5
v -8.5 1 -3.5
v -8.5 0 -3.5
v -2.5 1 -5.5
v -2.5 0 -5.5
v -7.5 0 -1.5
v -7.5 1 -1.5
v -7.5 1 -2.5
v -7.5 0 -2.5
v -1.5 1 -7.5
v -1.5 0 -7.5
v 4.5 0 8.5
v 4.5 1 8.5
v 4.5 1 7.5
v 4.5 0 7.5
v -6.5 0 -0.5
v -6.5 1 -0.5
v -6.5 1 -1.5
v -6.5 0 -1.5
v -5.5 0 0.5
v -5.5 1 0.5
v -5.5 1 -0.5
v -5.5 0 -0.5
v -4.5 0 1.5
v -4.5 1 1.5
v -4.5 1 0.5
v -4.5 0 0.5
v -4.5 0 2.5
v -4.5 1 2.5
v -5.5 1 2.5
v -5.5 0 2.5
v -6.5 0 5.5
v -6.5 1 5.5
v -6.5 1 4.5
v -6.5 0 4.5
v -7.5 1 5.5
v -7.5 0 5.5
v 1.5 0 6.5
v 1.5 1 6.5
v 1.5 1 5.5
v 1.5 0 5.5
v 0.5 0 -7.5
v 0.5 0 -8.5
v 0.5 1 -8.5
v 0.5 1 -7.5
v -3.5 0 7.5
v -3.5 0 6.5
v -3.5 1 6.5
v -3.5 1 7.5
v 7.5 0 8.5
v 7.5 0 7.5
v 7.5 1 7.5
v 7.5 1 8.5
v 5.5 0 4.5
v 5.5 0 3.5
v 5.5 1 3.5
v 5.5 1 4.5
v 1.5 0 -5.5
v 1.5 0 -6.5
v 1.5 1 -6.5
v 1.5 1 -5.5
v 7.5 0 6.5
v 7.5 1 6.5
v 2.5 0 -3.5
v 2.5 0 -4.5
v 2.5 1 -4.5
v 2.5 1 -3.5
v 8.5 0 -2.5
v 8.5 0 -3.5
v 8.5 1 -3.5
v 8.5 1 -2.5
v 2.5 0 -5.5
v 2.5 1 -5.5
v 7.5 0 -1.5
v 7.5 0 -2.5
v 7.5 1 -2.5
v 7.5 1 -1.5
v 1.5 0 -7.5
v 1.5 1 -7.5
v -4.5 0 8.5
v -4.5 0 7.5
v -4.5 1 7.5
v -4.5 1 8.5
v 4.5 0 1.5
v 4.5 0 0.5
v 4.5 1 0.5
v 4.5 1 1.5
v 5.5 0 0.5
v 5.5 0 -0.5
v 5.5 1 -0.5
v 5.5 1 0.5
v 6.5 0 -0.5
v 6.5 0 -1.5
v 6.5 1 -1.5
v 6.5 1 -0.5
v 4.5 0 2.5
v 4.5 1 2.5
v 5.5 0 2.5
v 5.5 1 2.5
v 6.5 0 5.5
v 6.5 0 4.5
v 6.5 1 4.5
v 6.5 1 5.5
v 7.5 0 5.5
v 7.5 1 5.5
v -1.5 0 6.5
v -1.5 0 5.5
v -1.5 1 5.5
v -1.5 1 6.5
v 5.5 0 8.5
v 6.5 0 8.5
v 6.5 1 8.5
v 5.5 1 8.5
v -6.5 0 8.5
v -5.5 0 8.5
v -5.5 1 8.5
v -6.5 1 8.5
v 2.5 0 6.5
v 2.5 1 6.5
v -2.5 0 6.5
v -2.5 1 6.5
v -0.5 0 5.5
v -0.5 1 5.5
v 0.5 0 5.5
v 0.5 1 5.5
v 7.5 0 -3.5
v 7.5 1 -3.5
v 6.5 0 -3.5
v 6.5 1 -3.5
v 5.5 0 -3.5
v 5.5 1 -3.5
v 4.5 0 -3.5
v 4.5 1 -3.5
v 3.5 0 -3.5
v 3.5 1 -3.5
v -3.5 0 -3.5
v -3.5 1 -3.5
v -4.5 0 -3.5
v -4.5 1 -3.5
v -5.5 0 -3.5
v -5.5 1 -3.5
v -6.5 0 -3.5
v -6.5 1 -3.5
v -7.5 0 -3.5
v -7.5 1 -3.5
v -4.5 0 3.5
v -4.5 0 4.5
v 3.5 0 -0.5
v 3.5 0 -1.5
v 4.5 0 -1.5
v 4.5 0 -0.5
v 1.5 0 -0.5
v 1.5 0 -1.5
v 2.5 0 -1.5
v 2.5 0 -0.5
v -2.5 0 4.5
v -2.5 0 3.5
v -1.5 0 3.5
v -1.5 0 4.5
v -0.5 0 3.5
v -0.5 0 4.5
v 1.5 0 1.5
v 1.5 0 0.5
v 2.5 0 0.5
v 2.5 0 1.5
v -6.5 0 -2.5
v -5.5 0 -2.5
v -5.5 0 -1.5
v 5.5 0 7.5
v 6.5 0 7.5
v -3.5 0 3.5
v -3.5 0 4.5
v -4.5 0 -2.5
v -4.5 0 -1.5
v -3.5 0 -2.5
v -3.5 0 -1.5
v -2.5 0 -2.5
v -2.5 0 -1.5
v -6.5 0 6.5
v -6.5 0 7.5
v -5.5 0 7.5
v -1.5 0 -2.5
v -1.5 0 -1.5
v 1.5 0 3.5
v 1.5 0 2.5
v 2.5 0 2.5
v 2.5 0 3.5
v -2.5 0 1.5
v -2.5 0 0.5
v -1.5 0 0.5
v -1.5 0 1.5
v -4.5 0 6.5
v -5.5 0 6.5
v -5.5 0 5.5
v 3.5 0 1.5
v 3.5 0 2.5
v 0.5 0 1.5
v 0.5 0 0.5
v 0.5 0 -0.5
v 1.5 0 4.5
v 2.5 0 4.5
v 2.5 0 5.5
v -0.5 0 -6.5
v 0.5 0 -6.5
v -0.5 0 0.5
v -0.5 0 1.5
v -4.5 0 -0.5
v -3.5 0 -0.5
v 4.5 0 6.5
v -2.5 0 -0.5
v 5.5 0 6.5
v 4.5 0 5.5
v 5.5 0 5.5
v 6.5 0 6.5
v -1.5 0 -0.5
v -0.5 0 -1.5
v -0.5 0 -0.5
v 3.5 0 5.5
v 4.5 0 4.5
v 4.5 0 3.5
v -2.5 0 2.5
v -1.5 0 2.5
v 0.5 0 -5.5
v -0.5 0 -5.5
v -2.5 0 5.5
v -3.5 0 2.5
v 0.5 0 3.5
v 0.5 0 2.5
v 3.5 0 0.5
v -3.5 0 0.5
v 3.5 0 4.5
v 3.5 0 3.5
v -3.5 0 5.5
v -4.5 0 5.5
v 0.5 0 -4.5
v 1.5 0 -4.5
v -0.5 0 -4.5
v -1.5 0 -4.5
v -0.5 0 2.5
v -3.5 0 1.5
v 1.5 0 -3.5
v 0.5 0 -3.5
v -0.5 0 -3.5
v -1.5 0 -3.5
v 0.5 0 -1.5
v 6.5 0 -2.5
v 5.5 0 -2.5
v 4.5 0 -2.5
v 3.5 0 -2.5
v 2.5 0 -2.5
v 1.5 0 -2.5
v 0.5 0 -2.5
v -0.5 0 -2.5
v 0.5 0 4.5
v 5.5 0 -1.5
v -4.5 1 4.5
v -4.5 1 3.5
v 3.5 1 -0.5
v 4.5 1 -0.5
v 4.5 1 -1.5
v 3.5 1 -1.5
v 1.5 1 -0.5
v 2.5 1 -0.5
v 2.5 1 -1.5
v 1.5 1 -1.5
v -2.5 1 4.5
v -1.5 1 4.5
v -1.5 1 3.5
v -2.5 1 3.5
v -0.5 1 4.5
v -0.5 1 3.5
v 1.5 1 1.5
v 2.5 1 1.5
v 2.5 1 0.5
v 1.5 1 0.5
v -5.5 1 -1.5
v -5.5 1 -2.5
v -6.5 1 -2.5
v 6.5 1 7.5
v 5.5 1 7.5
v -3.5 1 4.5
v -3.5 1 3.5
v -4.5 1 -1.5
v -4.5 1 -2.5
v -3.5 1 -1.5
v -3.5 1 -2.5
v -2.5 1 -1.5
v -2.5 1 -2.5
v -6.5 1 7.5
v -6.5 1 6.5
v -5.5 1 7.5
v -1.5 1 -1.5
v -1.5 1 -2.5
v 1.5 1 3.5
v 2.5 1 3.5
v 2.5 1 2.5
v 1.5 1 2.5
v -2.5 1 1.5
v -1.5 1 1.5
v -1.5 1 0.5
v -2.5 1 0.5
v -4.5 1 6.5
v -5.5 1 6.5
v -5.5 1 5.5
v 3.5 1 2.5
v 3.5 1 1.5
v 0.5 1 1.5
v 0.5 1 0.5
v 0.5 1 -0.5
v 2.5 1 5.5
v 2.5 1 4.5
v 1.5 1 4.5
v -0.5 1 -6.5
v 0.5 1 -6.5
v -0.5 1 1.5
v -0.5 1 0.5
v -4.5 1 -0.5
v -3.5 1 -0.5
v 4.5 1 6.5
v -2.5 1 -0.5
v 5.5 1 6.5
v 5.5 1 5.5
v 4.5 1 5.5
v 6.5 1 6.5
v -1.5 1 -0.5
v -0.5 1 -0.5
v -0.5 1 -1.5
v 3.5 1 5.5
v 4.5 1 4.5
v 4.5 1 3.5
v -1.5 1 2.5
v -2.5 1 2.5
v 0.5 1 -5.5
v -0.5 1 -5.5
v -2.5 1 5.5
v -3.5 1 2.5
v 0.5 1 3.5
v 0.5 1 2.5
v 3.5 1 0.5
v -3.5 1 0.5
v 3.5 1 4.5
v 3.5 1 3.5
v -3.5 1 5.5
v -4.5 1 5.5
v 0.5 1 -4.5
v 1.5 1 -4.5
v -0.5 1 -4.5
v -1.5 1 -4.5
v -0.5 1 2.5
v -3.5 1 1.5
v 1.5 1 -3.5
v 0.5 1 -3.5
v -0.5 1 -3.5
v -1.5 1 -3.5
v 0.5 1 -1.5
v 6.5 1 -2.5
v 5.5 1 -2.5
v 4.5 1 -2.5
v 3.5 1 -2.5
v 2.5 1 -2.5
v 1.5 1 -2.5
v 0.5 1 -2.5
v -0.5 1 -2.5
v 0.5 1 4.5
v 5.5 1 -1.5

# faces

usemtl palette

f 1/3/1 2/3/1 3/3/1 4/3/1

f 5/3/1 6/3/1 7/3/1 8/3/1

f 9/3/1 10/3/1 11/3/1 12/3/1

f 13/3/1 14/3/1 15/3/1 16/3/1

f 17/3/1 18/3/1 19/3/1 20/3/1

f 21/3/1 22/3/1 10/3/1 9/3/1

f 23/3/1 24/3/1 25/3/1 26/3/1

f 27/3/1 28/3/1 29/3/1 30/3/1

f 26/3/1 25/3/1 31/3/1 32/3/1

f 33/3/1 34/3/1 35/3/1 36/3/1

f 20/3/1 19/3/1 37/3/1 38/3/1

f 39/3/1 40/3/1 41/3/1 42/3/1

f 43/3/1 44/3/1 45/3/1 46/3/1

f 47/3/1 48/3/1 49/3/1 50/3/1

f 51/3/1 52/3/1 53/3/1 54/3/1

f 55/3/1 56/3/1 52/3/1 51/3/1

f 4/3/1 3/3/1 57/3/1 58/3/1

f 59/3/1 60/3/1 61/3/1 62/3/1

f 12/3/1 11/3/1 63/3/1 64/3/1

f 65/3/1 66/3/1 67/3/1 68/3/1

f 69/3/2 70/3/2 71/3/2 72/3/2

f 73/3/2 74/3/2 75/3/2 76/3/2

f 77/3/2 78/3/2 79/3/2 80/3/2

f 81/3/2 82/3/2 83/3/2 84/3/2

f 85/3/2 86/3/2 87/3/2 88/3/2

f 78/3/2 89/3/2 90/3/2 79/3/2

f 91/3/2 92/3/2 93/3/2 94/3/2

f 95/3/2 96/3/2 97/3/2 98/3/2

f 92/3/2 99/3/2 100/3/2 93/3/2

f 101/3/2 102/3/2 103/3/2 104/3/2

f 86/3/2 105/3/2 106/3/2 87/3/2

f 107/3/2 108/3/2 109/3/2 110/3/2

f 111/3/2 112/3/2 113/3/2 114/3/2

f 115/3/2 116/3/2 117/3/2 118/3/2

f 119/3/2 120/3/2 121/3/2 122/3/2

f 123/3/2 111/3/2 114/3/2 124/3/2

f 82/3/2 125/3/2 126/3/2 83/3/2

f 127/3/2 128/3/2 129/3/2 130/3/2

f 89/3/2 131/3/2 132/3/2 90/3/2

f 133/3/2 134/3/2 135/3/2 136/3/2

f 137/3/3 138/3/3 139/3/3 140/3/3

f 141/3/3 142/3/3 143/3/3 144/3/3

f 108/3/3 73/3/3 76/3/3 109/3/3

f 13/3/3 42/3/3 41/3/3 14/3/3

f 138/3/3 77/3/3 80/3/3 139/3/3

f 145/3/3 16/3/3 15/3/3 146/3/3

f 74/3/3 147/3/3 148/3/3 75/3/3

f 21/3/3 141/3/3 144/3/3 22/3/3

f 102/3/3 95/3/3 98/3/3 103/3/3

f 27/3/3 36/3/3 35/3/3 28/3/3

f 134/3/3 149/3/3 150/3/3 135/3/3

f 151/3/3 68/3/3 67/3/3 152/3/3

f 33/3/3 46/3/3 45/3/3 34/3/3

f 120/3/3 101/3/3 104/3/3 121/3/3

f 142/3/3 107/3/3 110/3/3 143/3/3

f 39/3/3 137/3/3 140/3/3 40/3/3

f 43/3/3 50/3/3 49/3/3 44/3/3

f 47/3/3 54/3/3 53/3/3 48/3/3

f 112/3/3 115/3/3 118/3/3 113/3/3

f 116/3/3 119/3/3 122/3/3 117/3/3

f 149/3/3 151/3/3 152/3/3 150/3/3

f 65/3/3 145/3/3 146/3/3 66/3/3

f 147/3/3 133/3/3 136/3/3 148/3/3

f 8/3/4 7/3/4 71/3/4 70/3/4

f 153/3/4 154/3/4 97/3/4 96/3/4

f 155/3/4 156/3/4 154/3/4 153/3/4

f 157/3/4 158/3/4 156/3/4 155/3/4

f 159/3/4 160/3/4 158/3/4 157/3/4

f 161/3/4 162/3/4 160/3/4 159/3/4

f 91/3/4 94/3/4 162/3/4 161/3/4

f 163/3/4 164/3/4 24/3/4 23/3/4

f 165/3/4 166/3/4 164/3/4 163/3/4

f 167/3/4 168/3/4 166/3/4 165/3/4

f 169/3/4 170/3/4 168/3/4 167/3/4

f 171/3/4 172/3/4 170/3/4 169/3/4

f 30/3/4 29/3/4 172/3/4 171/3/4

f 32/3/4 31/3/4 18/3/4 17/3/4

f 85/3/4 88/3/4 100/3/4 99/3/4

f 69/3/4 72/3/4 106/3/4 105/3/4

f 38/3/4 37/3/4 6/3/4 5/3/4

f 58/3/4 57/3/4 56/3/4 55/3/4

f 62/3/4 61/3/4 2/3/4 1/3/4

f 64/3/4 63/3/4 60/3/4 59/3/4

f 123/3/4 124/3/4 126/3/4 125/3/4

f 81/3/4 84/3/4 129/3/4 128/3/4

f 127/3/4 130/3/4 132/3/4 131/3/4

f 1/3/5 4/3/5 173/3/5 174/3/5

f 175/2/5 176/2/5 177/2/5 178/2/5

f 179/1/5 180/1/5 181/1/5 182/1/5

f 183/2/5 184/2/5 185/2/5 186/2/5

f 186/2/5 185/2/5 187/2/5 188/2/5

f 189/2/5 190/2/5 191/2/5 192/2/5

f 46/2/5 193/2/5 194/2/5 195/2/5

f 137/3/5 196/3/5 197/3/5 138/3/5

f 5/3/5 8/3/5 70/3/5 69/3/5

f 174/2/5 173/2/5 198/2/5 199/2/5

f 195/2/5 194/2/5 200/2/5 201/2/5

f 201/2/5 200/2/5 202/2/5 203/2/5

f 203/2/5 202/2/5 204/2/5 205/2/5

f 9/3/5 12/3/5 206/3/5 207/3/5

f 141/3/5 207/3/5 208/3/5 142/3/5

f 205/2/5 204/2/5 209/2/5 210/2/5

f 211/1/5 212/1/5 213/1/5 214/1/5

f 215/2/5 216/2/5 217/2/5 218/2/5

f 108/3/5 219/3/5 74/3/5 73/3/5

f 208/2/5 220/2/5 219/2/5 108/2/5

f 206/2/5 59/2/5 221/2/5 220/2/5

f 213/2/5 192/2/5 222/2/5 223/2/5

f 224/1/5 225/1/5 190/1/5 189/1/5

f 225/1/5 226/1/5 179/1/5 190/1/5

f 68/2/5 227/2/5 228/2/5 229/2/5

f 230/2/5 5/2/5 69/2/5 231/2/5

f 199/2/5 198/2/5 184/2/5 183/2/5

f 218/1/5 217/1/5 232/1/5 233/1/5

f 234/2/5 201/2/5 203/2/5 235/2/5

f 13/3/5 16/3/5 236/3/5 42/3/5

f 182/1/5 181/1/5 176/1/5 175/1/5

f 235/1/5 203/1/5 205/1/5 237/1/5

f 138/3/5 197/3/5 78/3/5 77/3/5

f 42/2/5 236/2/5 238/2/5 196/2/5

f 236/2/5 239/2/5 240/2/5 238/2/5

f 238/2/5 240/2/5 127/2/5 241/2/5

f 242/1/5 210/1/5 243/1/5 244/1/5

f 145/3/5 229/3/5 245/3/5 16/3/5

f 16/2/5 245/2/5 239/2/5 236/2/5

f 246/3/5 247/3/5 82/3/5 81/3/5

f 184/1/5 248/1/5 249/1/5 185/1/5

f 250/3/5 231/3/5 86/3/5 85/3/5

f 251/2/5 230/2/5 231/2/5 250/2/5

f 17/3/5 20/3/5 230/3/5 251/3/5

f 217/1/5 242/1/5 244/1/5 232/1/5

f 252/2/5 183/2/5 186/2/5 134/2/5

f 197/3/5 241/3/5 89/3/5 78/3/5

f 198/2/5 253/2/5 248/2/5 184/2/5

f 254/2/5 255/2/5 212/2/5 211/2/5

f 191/2/5 182/2/5 175/2/5 256/2/5

f 232/1/5 244/1/5 226/1/5 225/1/5

f 257/2/5 235/2/5 237/2/5 216/2/5

f 258/2/5 259/2/5 247/2/5 246/2/5

f 228/2/5 214/2/5 259/2/5 258/2/5

f 74/3/5 260/3/5 252/3/5 147/3/5

f 219/2/5 261/2/5 260/2/5 74/2/5

f 220/2/5 221/2/5 261/2/5 219/2/5

f 212/1/5 189/1/5 192/1/5 213/1/5

f 262/2/5 250/2/5 85/2/5 263/2/5

f 264/2/5 251/2/5 250/2/5 262/2/5

f 265/2/5 17/2/5 251/2/5 264/2/5

f 214/2/5 213/2/5 223/2/5 259/2/5

f 260/2/5 199/2/5 183/2/5 252/2/5

f 261/2/5 174/2/5 199/2/5 260/2/5

f 266/1/5 233/1/5 224/1/5 255/1/5

f 253/2/5 267/2/5 215/2/5 248/2/5

f 187/2/5 266/2/5 255/2/5 254/2/5

f 21/3/5 9/3/5 207/3/5 141/3/5

f 237/1/5 205/1/5 210/1/5 242/1/5

f 216/1/5 237/1/5 242/1/5 217/1/5

f 249/1/5 218/1/5 233/1/5 266/1/5

f 185/2/5 249/2/5 266/2/5 187/2/5

f 255/1/5 224/1/5 189/1/5 212/1/5

f 248/1/5 215/1/5 218/1/5 249/1/5

f 268/3/5 263/3/5 92/3/5 91/3/5

f 269/2/5 262/2/5 263/2/5 268/2/5

f 270/2/5 264/2/5 262/2/5 269/2/5

f 271/2/5 265/2/5 264/2/5 270/2/5

f 23/3/5 26/3/5 265/3/5 271/3/5

f 190/1/5 179/1/5 182/1/5 191/1/5

f 233/1/5 232/1/5 225/1/5 224/1/5

f 244/1/5 243/1/5 272/1/5 226/1/5

f 226/1/5 272/1/5 180/1/5 179/1/5

f 229/2/5 228/2/5 258/2/5 245/2/5

f 245/2/5 258/2/5 246/2/5 239/2/5

f 102/3/5 153/3/5 96/3/5 95/3/5

f 273/3/5 155/3/5 153/3/5 102/3/5

f 274/3/5 157/3/5 155/3/5 273/3/5

f 275/3/5 159/3/5 157/3/5 274/3/5

f 276/3/5 161/3/5 159/3/5 275/3/5

f 277/3/5 91/3/5 161/3/5 276/3/5

f 278/2/5 268/2/5 91/2/5 277/2/5

f 279/2/5 269/2/5 268/2/5 278/2/5

f 280/1/5 270/1/5 269/1/5 279/1/5

f 209/2/5 271/2/5 270/2/5 280/2/5

f 204/2/5 23/2/5 271/2/5 209/2/5

f 202/3/5 163/3/5 23/3/5 204/3/5

f 200/3/5 165/3/5 163/3/5 202/3/5

f 194/3/5 167/3/5 165/3/5 200/3/5

f 193/3/5 169/3/5 167/3/5 194/3/5

f 36/3/5 171/3/5 169/3/5 193/3/5

f 27/3/5 30/3/5 171/3/5 36/3/5

f 281/2/5 254/2/5 211/2/5 227/2/5

f 227/2/5 211/2/5 214/2/5 228/2/5

f 282/2/5 274/2/5 273/2/5 120/2/5

f 177/2/5 275/2/5 274/2/5 282/2/5

f 176/2/5 276/2/5 275/2/5 177/2/5

f 181/2/5 277/2/5 276/2/5 176/2/5

f 180/2/5 278/2/5 277/2/5 181/2/5

f 272/1/5 279/1/5 278/1/5 180/1/5

f 243/1/5 280/1/5 279/1/5 272/1/5

f 210/1/5 209/1/5 280/1/5 243/1/5

f 173/2/5 55/2/5 253/2/5 198/2/5

f 221/2/5 1/2/5 174/2/5 261/2/5

f 207/2/5 206/2/5 220/2/5 208/2/5

f 196/2/5 238/2/5 241/2/5 197/2/5

f 239/2/5 246/2/5 81/2/5 240/2/5

f 259/2/5 223/2/5 123/2/5 247/2/5

f 188/2/5 187/2/5 254/2/5 281/2/5

f 134/3/5 186/3/5 188/3/5 149/3/5

f 151/3/5 281/3/5 227/3/5 68/3/5

f 26/3/5 32/3/5 17/3/5 265/3/5

f 263/3/5 85/3/5 99/3/5 92/3/5

f 33/3/5 36/3/5 193/3/5 46/3/5

f 50/2/5 195/2/5 201/2/5 234/2/5

f 54/2/5 234/2/5 235/2/5 257/2/5

f 267/2/5 257/2/5 216/2/5 215/2/5

f 192/2/5 191/2/5 256/2/5 222/2/5

f 256/2/5 175/2/5 178/2/5 112/2/5

f 178/2/5 177/2/5 282/2/5 116/2/5

f 120/3/5 273/3/5 102/3/5 101/3/5

f 231/3/5 69/3/5 105/3/5 86/3/5

f 20/3/5 38/3/5 5/3/5 230/3/5

f 142/3/5 208/3/5 108/3/5 107/3/5

f 39/3/5 42/3/5 196/3/5 137/3/5

f 43/3/5 46/3/5 195/3/5 50/3/5

f 47/3/5 50/3/5 234/3/5 54/3/5

f 51/3/5 54/3/5 257/3/5 267/3/5

f 222/3/5 256/3/5 112/3/5 111/3/5

f 112/3/5 178/3/5 116/3/5 115/3/5

f 116/3/5 282/3/5 120/3/5 119/3/5

f 55/3/5 51/3/5 267/3/5 253/3/5

f 4/3/5 58/3/5 55/3/5 173/3/5

f 59/3/5 62/3/5 1/3/5 221/3/5

f 12/3/5 64/3/5 59/3/5 206/3/5

f 223/3/5 222/3/5 111/3/5 123/3/5

f 247/3/5 123/3/5 125/3/5 82/3/5

f 240/3/5 81/3/5 128/3/5 127/3/5

f 241/3/5 127/3/5 131/3/5 89/3/5

f 149/3/5 188/3/5 281/3/5 151/3/5

f 65/3/5 68/3/5 229/3/5 145/3/5

f 147/3/5 252/3/5 134/3/5 133/3/5

f 2/3/6 283/3/6 284/3/6 3/3/6

f 285/2/6 286/2/6 287/2/6 288/2/6

f 289/1/6 290/1/6 291/1/6 292/1/6

f 293/2/6 294/2/6 295/2/6 296/2/6

f 294/2/6 297/2/6 298/2/6 295/2/6

f 299/2/6 300/2/6 301/2/6 302/2/6

f 45/2/6 303/2/6 304/2/6 305/2/6

f 140/3/6 139/3/6 306/3/6 307/3/6

f 6/3/6 72/3/6 71/3/6 7/3/6

f 283/2/6 308/2/6 309/2/6 284/2/6

f 303/2/6 310/2/6 311/2/6 304/2/6

f 310/2/6 312/2/6 313/2/6 311/2/6

f 312/2/6 314/2/6 315/2/6 313/2/6

f 10/3/6 316/3/6 317/3/6 11/3/6

f 144/3/6 143/3/6 318/3/6 316/3/6

f 314/2/6 319/2/6 320/2/6 315/2/6

f 321/1/6 322/1/6 323/1/6 324/1/6

f 325/2/6 326/2/6 327/2/6 328/2/6

f 109/3/6 76/3/6 75/3/6 329/3/6

f 318/2/6 109/2/6 329/2/6 330/2/6

f 317/2/6 330/2/6 331/2/6 60/2/6

f 323/2/6 332/2/6 333/2/6 300/2/6

f 334/1/6 299/1/6 302/1/6 335/1/6

f 335/1/6 302/1/6 289/1/6 336/1/6

f 67/2/6 337/2/6 338/2/6 339/2/6

f 340/2/6 341/2/6 72/2/6 6/2/6

f 308/2/6 293/2/6 296/2/6 309/2/6

f 326/1/6 342/1/6 343/1/6 327/1/6

f 344/2/6 345/2/6 312/2/6 310/2/6

f 14/3/6 41/3/6 346/3/6 15/3/6

f 290/1/6 285/1/6 288/1/6 291/1/6

f 345/1/6 347/1/6 314/1/6 312/1/6

f 139/3/6 80/3/6 79/3/6 306/3/6

f 41/2/6 307/2/6 348/2/6 346/2/6

f 346/2/6 348/2/6 349/2/6 350/2/6

f 348/2/6 351/2/6 130/2/6 349/2/6

f 352/1/6 353/1/6 354/1/6 319/1/6

f 146/3/6 15/3/6 355/3/6 337/3/6

f 15/2/6 346/2/6 350/2/6 355/2/6

f 356/3/6 84/3/6 83/3/6 357/3/6

f 296/1/6 295/1/6 358/1/6 359/1/6

f 360/3/6 88/3/6 87/3/6 341/3/6

f 361/2/6 360/2/6 341/2/6 340/2/6

f 18/3/6 361/3/6 340/3/6 19/3/6

f 327/1/6 343/1/6 353/1/6 352/1/6

f 362/2/6 135/2/6 294/2/6 293/2/6

f 306/3/6 79/3/6 90/3/6 351/3/6

f 309/2/6 296/2/6 359/2/6 363/2/6

f 364/2/6 321/2/6 324/2/6 365/2/6

f 301/2/6 366/2/6 285/2/6 290/2/6

f 343/1/6 335/1/6 336/1/6 353/1/6

f 367/2/6 328/2/6 347/2/6 345/2/6

f 368/2/6 356/2/6 357/2/6 369/2/6

f 338/2/6 368/2/6 369/2/6 322/2/6

f 75/3/6 148/3/6 362/3/6 370/3/6

f 329/2/6 75/2/6 370/2/6 371/2/6

f 330/2/6 329/2/6 371/2/6 331/2/6

f 324/1/6 323/1/6 300/1/6 299/1/6

f 372/2/6 373/2/6 88/2/6 360/2/6

f 374/2/6 372/2/6 360/2/6 361/2/6

f 375/2/6 374/2/6 361/2/6 18/2/6

f 322/2/6 369/2/6 332/2/6 323/2/6

f 370/2/6 362/2/6 293/2/6 308/2/6

f 371/2/6 370/2/6 308/2/6 283/2/6

f 376/1/6 365/1/6 334/1/6 342/1/6

f 363/2/6 359/2/6 325/2/6 377/2/6

f 298/2/6 364/2/6 365/2/6 376/2/6

f 22/3/6 144/3/6 316/3/6 10/3/6

f 347/1/6 352/1/6 319/1/6 314/1/6

f 328/1/6 327/1/6 352/1/6 347/1/6

f 358/1/6 376/1/6 342/1/6 326/1/6

f 295/2/6 298/2/6 376/2/6 358/2/6

f 365/1/6 324/1/6 299/1/6 334/1/6

f 359/1/6 358/1/6 326/1/6 325/1/6

f 378/3/6 94/3/6 93/3/6 373/3/6

f 379/2/6 378/2/6 373/2/6 372/2/6

f 380/2/6 379/2/6 372/2/6 374/2/6

f 381/2/6 380/2/6 374/2/6 375/2/6

f 24/3/6 381/3/6 375/3/6 25/3/6

f 302/1/6 301/1/6 290/1/6 289/1/6

f 342/1/6 334/1/6 335/1/6 343/1/6

f 353/1/6 336/1/6 382/1/6 354/1/6

f 336/1/6 289/1/6 292/1/6 382/1/6

f 337/2/6 355/2/6 368/2/6 338/2/6

f 355/2/6 350/2/6 356/2/6 368/2/6

f 103/3/6 98/3/6 97/3/6 154/3/6

f 383/3/6 103/3/6 154/3/6 156/3/6

f 384/3/6 383/3/6 156/3/6 158/3/6

f 385/3/6 384/3/6 158/3/6 160/3/6

f 386/3/6 385/3/6 160/3/6 162/3/6

f 387/3/6 386/3/6 162/3/6 94/3/6

f 388/2/6 387/2/6 94/2/6 378/2/6

f 389/2/6 388/2/6 378/2/6 379/2/6

f 390/1/6 389/1/6 379/1/6 380/1/6

f 320/2/6 390/2/6 380/2/6 381/2/6

f 315/2/6 320/2/6 381/2/6 24/2/6

f 313/3/6 315/3/6 24/3/6 164/3/6

f 311/3/6 313/3/6 164/3/6 166/3/6

f 304/3/6 311/3/6 166/3/6 168/3/6

f 305/3/6 304/3/6 168/3/6 170/3/6

f 35/3/6 305/3/6 170/3/6 172/3/6

f 28/3/6 35/3/6 172/3/6 29/3/6

f 391/2/6 339/2/6 321/2/6 364/2/6

f 339/2/6 338/2/6 322/2/6 321/2/6

f 392/2/6 121/2/6 383/2/6 384/2/6

f 287/2/6 392/2/6 384/2/6 385/2/6

f 288/2/6 287/2/6 385/2/6 386/2/6

f 291/2/6 288/2/6 386/2/6 387/2/6

f 292/2/6 291/2/6 387/2/6 388/2/6

f 382/1/6 292/1/6 388/1/6 389/1/6

f 354/1/6 382/1/6 389/1/6 390/1/6

f 319/1/6 354/1/6 390/1/6 320/1/6

f 284/2/6 309/2/6 363/2/6 56/2/6

f 331/2/6 371/2/6 283/2/6 2/2/6

f 316/2/6 318/2/6 330/2/6 317/2/6

f 307/2/6 306/2/6 351/2/6 348/2/6

f 350/2/6 349/2/6 84/2/6 356/2/6

f 369/2/6 357/2/6 124/2/6 332/2/6

f 297/2/6 391/2/6 364/2/6 298/2/6

f 135/3/6 150/3/6 297/3/6 294/3/6

f 152/3/6 67/3/6 339/3/6 391/3/6

f 25/3/6 375/3/6 18/3/6 31/3/6

f 373/3/6 93/3/6 100/3/6 88/3/6

f 34/3/6 45/3/6 305/3/6 35/3/6

f 49/2/6 344/2/6 310/2/6 303/2/6

f 53/2/6 367/2/6 345/2/6 344/2/6

f 377/2/6 325/2/6 328/2/6 367/2/6

f 300/2/6 333/2/6 366/2/6 301/2/6

f 366/2/6 113/2/6 286/2/6 285/2/6

f 286/2/6 117/2/6 392/2/6 287/2/6

f 121/3/6 104/3/6 103/3/6 383/3/6

f 341/3/6 87/3/6 106/3/6 72/3/6

f 19/3/6 340/3/6 6/3/6 37/3/6

f 143/3/6 110/3/6 109/3/6 318/3/6

f 40/3/6 140/3/6 307/3/6 41/3/6

f 44/3/6 49/3/6 303/3/6 45/3/6

f 48/3/6 53/3/6 344/3/6 49/3/6

f 52/3/6 377/3/6 367/3/6 53/3/6

f 333/3/6 114/3/6 113/3/6 366/3/6

f 113/3/6 118/3/6 117/3/6 286/3/6

f 117/3/6 122/3/6 121/3/6 392/3/6

f 56/3/6 363/3/6 377/3/6 52/3/6

f 3/3/6 284/3/6 56/3/6 57/3/6

f 60/3/6 331/3/6 2/3/6 61/3/6

f 11/3/6 317/3/6 60/3/6 63/3/6

f 332/3/6 124/3/6 114/3/6 333/3/6

f 357/3/6 83/3/6 126/3/6 124/3/6

f 349/3/6 130/3/6 129/3/6 84/3/6

f 351/3/6 90/3/6 132/3/6 130/3/6

f 150/3/6 152/3/6 391/3/6 297/3/6

f 66/3/6 146/3/6 337/3/6 67/3/6

f 148/3/6 136/3/6 135/3/6 362/3/6

# numNormals 6
# numTexCoords 3
# numVerts 392
# numFaces 390
