# MagicaVoxel @ ephtracy

# material
mtllib Snowflake.mtl

# normals
vn -1 0 0
vn 1 0 0
vn 0 0 1
vn 0 0 -1
vn 0 -1 0
vn 0 1 0

# texcoords
vt 0.958984 0.5

# verts
v -0.5 4 -2.5
v -0.5 5 -2.5
v -0.5 5 -3.5
v -0.5 4 -3.5
v -0.5 14 -1.5
v -0.5 15 -1.5
v -0.5 15 -2.5
v -0.5 14 -2.5
v -0.5 11 0.5
v -0.5 12 0.5
v -0.5 12 -0.5
v -0.5 11 -0.5
v -0.5 10 -5.5
v -0.5 11 -5.5
v -0.5 11 -6.5
v -0.5 10 -6.5
v -0.5 8 -7.5
v -0.5 9 -7.5
v -0.5 9 -8.5
v -0.5 8 -8.5
v -0.5 5 0.5
v -0.5 6 0.5
v -0.5 6 -0.5
v -0.5 5 -0.5
v -0.5 14 0.5
v -0.5 15 0.5
v -0.5 15 -0.5
v -0.5 14 -0.5
v -0.5 5 -1.5
v -0.5 6 -1.5
v -0.5 6 -2.5
v -0.5 11 4.5
v -0.5 12 4.5
v -0.5 12 3.5
v -0.5 11 3.5
v -0.5 5 -4.5
v -0.5 4 -4.5
v -0.5 9 0.5
v -0.5 10 0.5
v -0.5 10 -0.5
v -0.5 9 -0.5
v -0.5 5 2.5
v -0.5 6 2.5
v -0.5 6 1.5
v -0.5 5 1.5
v -0.5 10 -1.5
v -0.5 9 -1.5
v -0.5 3 1.5
v -0.5 4 1.5
v -0.5 4 0.5
v -0.5 3 0.5
v -0.5 5 4.5
v -0.5 6 4.5
v -0.5 6 3.5
v -0.5 5 3.5
v -0.5 14 2.5
v -0.5 15 2.5
v -0.5 15 1.5
v -0.5 14 1.5
v -0.5 12 -3.5
v -0.5 13 -3.5
v -0.5 13 -4.5
v -0.5 12 -4.5
v -0.5 2 -1.5
v -0.5 3 -1.5
v -0.5 3 -2.5
v -0.5 2 -2.5
v -0.5 7 -0.5
v -0.5 8 -0.5
v -0.5 8 -1.5
v -0.5 7 -1.5
v -0.5 11 2.5
v -0.5 12 2.5
v -0.5 12 1.5
v -0.5 11 1.5
v -0.5 6 6.5
v -0.5 7 6.5
v -0.5 7 5.5
v -0.5 6 5.5
v -0.5 1 -0.5
v -0.5 2 -0.5
v -0.5 1 -1.5
v -0.5 11 -1.5
v -0.5 11 -2.5
v -0.5 10 -2.5
v -0.5 6 -3.5
v -0.5 6 -4.5
v -0.5 10 3.5
v -0.5 10 2.5
v -0.5 4 4.5
v -0.5 4 3.5
v -0.5 10 1.5
v -0.5 12 -2.5
v -0.5 13 -2.5
v -0.5 12 -1.5
v -0.5 11 -3.5
v -0.5 10 -3.5
v -0.5 4 -0.5
v -0.5 8 6.5
v -0.5 9 6.5
v -0.5 9 5.5
v -0.5 8 5.5
v -0.5 3 -0.5
v -0.5 4 -1.5
v -0.5 7 0.5
v -0.5 8 0.5
v -0.5 7 3.5
v -0.5 7 2.5
v -0.5 8 -5.5
v -0.5 9 -5.5
v -0.5 9 -6.5
v -0.5 8 -6.5
v -0.5 7 1.5
v -0.5 8 1.5
v -0.5 8 8.5
v -0.5 9 8.5
v -0.5 9 7.5
v -0.5 8 7.5
v -0.5 8 4.5
v -0.5 7 4.5
v -0.5 0 0.5
v -0.5 1 0.5
v -0.5 0 -0.5
v -0.5 9 1.5
v -0.5 9 4.5
v -0.5 9 3.5
v -0.5 8 3.5
v -0.5 9 2.5
v -0.5 8 2.5
v -0.5 7 -2.5
v -0.5 8 -3.5
v -0.5 9 -3.5
v -0.5 9 -4.5
v -0.5 8 -4.5
v -0.5 9 -2.5
v -0.5 8 -2.5
v -0.5 2 2.5
v -0.5 3 2.5
v -0.5 2 1.5
v -0.5 7 -4.5
v -0.5 7 -5.5
v -0.5 7 -3.5
v -0.5 2 0.5
v -0.5 13 3.5
v -0.5 13 2.5
v -0.5 4 2.5
v -0.5 13 -0.5
v -0.5 13 -1.5
v -0.5 7 -6.5
v -0.5 7 -7.5
v -0.5 7 7.5
v -0.5 13 0.5
v -0.5 10 7.5
v -0.5 10 6.5
v -0.5 11 6.5
v -0.5 11 5.5
v -0.5 10 5.5
v -0.5 13 1.5
v -0.5 16 1.5
v -0.5 16 0.5
v -0.5 6 -5.5
v -0.5 6 -6.5
v -0.5 10 4.5
v -0.5 1 1.5
v -0.5 17 0.5
v -0.5 17 -0.5
v -0.5 16 -0.5
v -0.5 10 -4.5
v -0.5 13 4.5
v -0.5 10 -7.5
v -0.5 16 -1.5
v -0.5 11 -4.5
v 0.5 4 -2.5
v 0.5 4 -3.5
v 0.5 5 -3.5
v 0.5 5 -2.5
v 0.5 14 -1.5
v 0.5 14 -2.5
v 0.5 15 -2.5
v 0.5 15 -1.5
v 0.5 11 0.5
v 0.5 11 -0.5
v 0.5 12 -0.5
v 0.5 12 0.5
v 0.5 10 -5.5
v 0.5 10 -6.5
v 0.5 11 -6.5
v 0.5 11 -5.5
v 0.5 8 -7.5
v 0.5 8 -8.5
v 0.5 9 -8.5
v 0.5 9 -7.5
v 0.5 5 0.5
v 0.5 5 -0.5
v 0.5 6 -0.5
v 0.5 6 0.5
v 0.5 14 0.5
v 0.5 14 -0.5
v 0.5 15 -0.5
v 0.5 15 0.5
v 0.5 5 -1.5
v 0.5 6 -2.5
v 0.5 6 -1.5
v 0.5 11 4.5
v 0.5 11 3.5
v 0.5 12 3.5
v 0.5 12 4.5
v 0.5 4 -4.5
v 0.5 5 -4.5
v 0.5 9 0.5
v 0.5 9 -0.5
v 0.5 10 -0.5
v 0.5 10 0.5
v 0.5 5 2.5
v 0.5 5 1.5
v 0.5 6 1.5
v 0.5 6 2.5
v 0.5 9 -1.5
v 0.5 10 -1.5
v 0.5 3 1.5
v 0.5 3 0.5
v 0.5 4 0.5
v 0.5 4 1.5
v 0.5 5 4.5
v 0.5 5 3.5
v 0.5 6 3.5
v 0.5 6 4.5
v 0.5 14 2.5
v 0.5 14 1.5
v 0.5 15 1.5
v 0.5 15 2.5
v 0.5 12 -3.5
v 0.5 12 -4.5
v 0.5 13 -4.5
v 0.5 13 -3.5
v 0.5 2 -1.5
v 0.5 2 -2.5
v 0.5 3 -2.5
v 0.5 3 -1.5
v 0.5 7 -0.5
v 0.5 7 -1.5
v 0.5 8 -1.5
v 0.5 8 -0.5
v 0.5 11 2.5
v 0.5 11 1.5
v 0.5 12 1.5
v 0.5 12 2.5
v 0.5 6 6.5
v 0.5 6 5.5
v 0.5 7 5.5
v 0.5 7 6.5
v 0.5 1 -0.5
v 0.5 1 -1.5
v 0.5 2 -0.5
v 0.5 10 -2.5
v 0.5 11 -2.5
v 0.5 11 -1.5
v 0.5 6 -4.5
v 0.5 6 -3.5
v 0.5 10 3.5
v 0.5 10 2.5
v 0.5 4 4.5
v 0.5 4 3.5
v 0.5 10 1.5
v 0.5 12 -2.5
v 0.5 13 -2.5
v 0.5 12 -1.5
v 0.5 10 -3.5
v 0.5 11 -3.5
v 0.5 4 -0.5
v 0.5 8 6.5
v 0.5 8 5.5
v 0.5 9 5.5
v 0.5 9 6.5
v 0.5 3 -0.5
v 0.5 4 -1.5
v 0.5 7 0.5
v 0.5 8 0.5
v 0.5 7 2.5
v 0.5 7 3.5
v 0.5 8 -5.5
v 0.5 8 -6.5
v 0.5 9 -6.5
v 0.5 9 -5.5
v 0.5 7 1.5
v 0.5 8 1.5
v 0.5 8 8.5
v 0.5 8 7.5
v 0.5 9 7.5
v 0.5 9 8.5
v 0.5 7 4.5
v 0.5 8 4.5
v 0.5 0 0.5
v 0.5 0 -0.5
v 0.5 1 0.5
v 0.5 9 1.5
v 0.5 8 3.5
v 0.5 9 3.5
v 0.5 9 4.5
v 0.5 8 2.5
v 0.5 9 2.5
v 0.5 7 -2.5
v 0.5 8 -3.5
v 0.5 8 -4.5
v 0.5 9 -4.5
v 0.5 9 -3.5
v 0.5 8 -2.5
v 0.5 9 -2.5
v 0.5 2 2.5
v 0.5 2 1.5
v 0.5 3 2.5
v 0.5 7 -4.5
v 0.5 7 -5.5
v 0.5 7 -3.5
v 0.5 2 0.5
v 0.5 13 2.5
v 0.5 13 3.5
v 0.5 4 2.5
v 0.5 13 -0.5
v 0.5 13 -1.5
v 0.5 7 -6.5
v 0.5 7 -7.5
v 0.5 7 7.5
v 0.5 13 0.5
v 0.5 10 6.5
v 0.5 10 7.5
v 0.5 10 5.5
v 0.5 11 5.5
v 0.5 11 6.5
v 0.5 13 1.5
v 0.5 16 0.5
v 0.5 16 1.5
v 0.5 6 -5.5
v 0.5 6 -6.5
v 0.5 10 4.5
v 0.5 1 1.5
v 0.5 16 -0.5
v 0.5 17 -0.5
v 0.5 17 0.5
v 0.5 10 -4.5
v 0.5 13 4.5
v 0.5 10 -7.5
v 0.5 16 -1.5
v 0.5 11 -4.5

# faces

usemtl palette

f 1/1/1 2/1/1 3/1/1 4/1/1

f 5/1/1 6/1/1 7/1/1 8/1/1

f 9/1/1 10/1/1 11/1/1 12/1/1

f 13/1/1 14/1/1 15/1/1 16/1/1

f 17/1/1 18/1/1 19/1/1 20/1/1

f 21/1/1 22/1/1 23/1/1 24/1/1

f 25/1/1 26/1/1 27/1/1 28/1/1

f 29/1/1 30/1/1 31/1/1 2/1/1

f 32/1/1 33/1/1 34/1/1 35/1/1

f 4/1/1 3/1/1 36/1/1 37/1/1

f 38/1/1 39/1/1 40/1/1 41/1/1

f 42/1/1 43/1/1 44/1/1 45/1/1

f 41/1/1 40/1/1 46/1/1 47/1/1

f 48/1/1 49/1/1 50/1/1 51/1/1

f 52/1/1 53/1/1 54/1/1 55/1/1

f 56/1/1 57/1/1 58/1/1 59/1/1

f 60/1/1 61/1/1 62/1/1 63/1/1

f 64/1/1 65/1/1 66/1/1 67/1/1

f 68/1/1 69/1/1 70/1/1 71/1/1

f 72/1/1 73/1/1 74/1/1 75/1/1

f 76/1/1 77/1/1 78/1/1 79/1/1

f 80/1/1 81/1/1 64/1/1 82/1/1

f 46/1/1 83/1/1 84/1/1 85/1/1

f 3/1/1 86/1/1 87/1/1 36/1/1

f 88/1/1 35/1/1 72/1/1 89/1/1

f 90/1/1 52/1/1 55/1/1 91/1/1

f 89/1/1 72/1/1 75/1/1 92/1/1

f 93/1/1 94/1/1 61/1/1 60/1/1

f 69/1/1 41/1/1 47/1/1 70/1/1

f 83/1/1 95/1/1 93/1/1 84/1/1

f 85/1/1 84/1/1 96/1/1 97/1/1

f 50/1/1 21/1/1 24/1/1 98/1/1

f 99/1/1 100/1/1 101/1/1 102/1/1

f 103/1/1 98/1/1 104/1/1 65/1/1

f 105/1/1 106/1/1 69/1/1 68/1/1

f 54/1/1 107/1/1 108/1/1 43/1/1

f 109/1/1 110/1/1 111/1/1 112/1/1

f 113/1/1 114/1/1 106/1/1 105/1/1

f 39/1/1 9/1/1 12/1/1 40/1/1

f 115/1/1 116/1/1 117/1/1 118/1/1

f 78/1/1 102/1/1 119/1/1 120/1/1

f 121/1/1 122/1/1 80/1/1 123/1/1

f 114/1/1 124/1/1 38/1/1 106/1/1

f 119/1/1 125/1/1 126/1/1 127/1/1

f 127/1/1 126/1/1 128/1/1 129/1/1

f 129/1/1 128/1/1 124/1/1 114/1/1

f 30/1/1 71/1/1 130/1/1 31/1/1

f 131/1/1 132/1/1 133/1/1 134/1/1

f 70/1/1 47/1/1 135/1/1 136/1/1

f 136/1/1 135/1/1 132/1/1 131/1/1

f 137/1/1 138/1/1 48/1/1 139/1/1

f 140/1/1 134/1/1 109/1/1 141/1/1

f 31/1/1 130/1/1 142/1/1 86/1/1

f 143/1/1 51/1/1 103/1/1 81/1/1

f 124/1/1 92/1/1 39/1/1 38/1/1

f 34/1/1 144/1/1 145/1/1 73/1/1

f 91/1/1 55/1/1 42/1/1 146/1/1

f 147/1/1 28/1/1 5/1/1 148/1/1

f 149/1/1 112/1/1 17/1/1 150/1/1

f 151/1/1 118/1/1 99/1/1 77/1/1

f 10/1/1 152/1/1 147/1/1 11/1/1

f 117/1/1 153/1/1 154/1/1 100/1/1

f 154/1/1 155/1/1 156/1/1 157/1/1

f 158/1/1 59/1/1 25/1/1 152/1/1

f 58/1/1 159/1/1 160/1/1 26/1/1

f 22/1/1 105/1/1 68/1/1 23/1/1

f 161/1/1 141/1/1 149/1/1 162/1/1

f 101/1/1 157/1/1 163/1/1 125/1/1

f 164/1/1 139/1/1 143/1/1 122/1/1

f 160/1/1 165/1/1 166/1/1 167/1/1

f 43/1/1 108/1/1 113/1/1 44/1/1

f 133/1/1 168/1/1 13/1/1 110/1/1

f 33/1/1 169/1/1 144/1/1 34/1/1

f 111/1/1 16/1/1 170/1/1 18/1/1

f 27/1/1 167/1/1 171/1/1 6/1/1

f 96/1/1 60/1/1 63/1/1 172/1/1

f 173/1/2 174/1/2 175/1/2 176/1/2

f 177/1/2 178/1/2 179/1/2 180/1/2

f 181/1/2 182/1/2 183/1/2 184/1/2

f 185/1/2 186/1/2 187/1/2 188/1/2

f 189/1/2 190/1/2 191/1/2 192/1/2

f 193/1/2 194/1/2 195/1/2 196/1/2

f 197/1/2 198/1/2 199/1/2 200/1/2

f 201/1/2 176/1/2 202/1/2 203/1/2

f 204/1/2 205/1/2 206/1/2 207/1/2

f 174/1/2 208/1/2 209/1/2 175/1/2

f 210/1/2 211/1/2 212/1/2 213/1/2

f 214/1/2 215/1/2 216/1/2 217/1/2

f 211/1/2 218/1/2 219/1/2 212/1/2

f 220/1/2 221/1/2 222/1/2 223/1/2

f 224/1/2 225/1/2 226/1/2 227/1/2

f 228/1/2 229/1/2 230/1/2 231/1/2

f 232/1/2 233/1/2 234/1/2 235/1/2

f 236/1/2 237/1/2 238/1/2 239/1/2

f 240/1/2 241/1/2 242/1/2 243/1/2

f 244/1/2 245/1/2 246/1/2 247/1/2

f 248/1/2 249/1/2 250/1/2 251/1/2

f 252/1/2 253/1/2 236/1/2 254/1/2

f 219/1/2 255/1/2 256/1/2 257/1/2

f 175/1/2 209/1/2 258/1/2 259/1/2

f 260/1/2 261/1/2 244/1/2 205/1/2

f 262/1/2 263/1/2 225/1/2 224/1/2

f 261/1/2 264/1/2 245/1/2 244/1/2

f 265/1/2 232/1/2 235/1/2 266/1/2

f 243/1/2 242/1/2 218/1/2 211/1/2

f 257/1/2 256/1/2 265/1/2 267/1/2

f 255/1/2 268/1/2 269/1/2 256/1/2

f 222/1/2 270/1/2 194/1/2 193/1/2

f 271/1/2 272/1/2 273/1/2 274/1/2

f 275/1/2 239/1/2 276/1/2 270/1/2

f 277/1/2 240/1/2 243/1/2 278/1/2

f 226/1/2 217/1/2 279/1/2 280/1/2

f 281/1/2 282/1/2 283/1/2 284/1/2

f 285/1/2 277/1/2 278/1/2 286/1/2

f 213/1/2 212/1/2 182/1/2 181/1/2

f 287/1/2 288/1/2 289/1/2 290/1/2

f 250/1/2 291/1/2 292/1/2 272/1/2

f 293/1/2 294/1/2 252/1/2 295/1/2

f 286/1/2 278/1/2 210/1/2 296/1/2

f 292/1/2 297/1/2 298/1/2 299/1/2

f 297/1/2 300/1/2 301/1/2 298/1/2

f 300/1/2 286/1/2 296/1/2 301/1/2

f 203/1/2 202/1/2 302/1/2 241/1/2

f 303/1/2 304/1/2 305/1/2 306/1/2

f 242/1/2 307/1/2 308/1/2 218/1/2

f 307/1/2 303/1/2 306/1/2 308/1/2

f 309/1/2 310/1/2 220/1/2 311/1/2

f 312/1/2 313/1/2 281/1/2 304/1/2

f 202/1/2 259/1/2 314/1/2 302/1/2

f 315/1/2 254/1/2 275/1/2 221/1/2

f 296/1/2 210/1/2 213/1/2 264/1/2

f 206/1/2 247/1/2 316/1/2 317/1/2

f 263/1/2 318/1/2 214/1/2 225/1/2

f 319/1/2 320/1/2 177/1/2 198/1/2

f 321/1/2 322/1/2 189/1/2 282/1/2

f 323/1/2 251/1/2 271/1/2 288/1/2

f 184/1/2 183/1/2 319/1/2 324/1/2

f 289/1/2 274/1/2 325/1/2 326/1/2

f 325/1/2 327/1/2 328/1/2 329/1/2

f 330/1/2 324/1/2 197/1/2 229/1/2

f 230/1/2 200/1/2 331/1/2 332/1/2

f 196/1/2 195/1/2 240/1/2 277/1/2

f 333/1/2 334/1/2 321/1/2 313/1/2

f 273/1/2 299/1/2 335/1/2 327/1/2

f 336/1/2 295/1/2 315/1/2 310/1/2

f 331/1/2 337/1/2 338/1/2 339/1/2

f 217/1/2 216/1/2 285/1/2 279/1/2

f 305/1/2 284/1/2 185/1/2 340/1/2

f 207/1/2 206/1/2 317/1/2 341/1/2

f 283/1/2 192/1/2 342/1/2 186/1/2

f 199/1/2 180/1/2 343/1/2 337/1/2

f 269/1/2 344/1/2 233/1/2 232/1/2

f 1/1/3 173/1/3 176/1/3 2/1/3

f 5/1/3 177/1/3 180/1/3 6/1/3

f 9/1/3 181/1/3 184/1/3 10/1/3

f 13/1/3 185/1/3 188/1/3 14/1/3

f 17/1/3 189/1/3 192/1/3 18/1/3

f 21/1/3 193/1/3 196/1/3 22/1/3

f 25/1/3 197/1/3 200/1/3 26/1/3

f 29/1/3 201/1/3 203/1/3 30/1/3

f 32/1/3 204/1/3 207/1/3 33/1/3

f 42/1/3 214/1/3 217/1/3 43/1/3

f 48/1/3 220/1/3 223/1/3 49/1/3

f 52/1/3 224/1/3 227/1/3 53/1/3

f 56/1/3 228/1/3 231/1/3 57/1/3

f 64/1/3 236/1/3 239/1/3 65/1/3

f 72/1/3 244/1/3 247/1/3 73/1/3

f 76/1/3 248/1/3 251/1/3 77/1/3

f 80/1/3 252/1/3 254/1/3 81/1/3

f 46/1/3 219/1/3 257/1/3 83/1/3

f 3/1/3 175/1/3 259/1/3 86/1/3

f 88/1/3 260/1/3 205/1/3 35/1/3

f 90/1/3 262/1/3 224/1/3 52/1/3

f 93/1/3 265/1/3 266/1/3 94/1/3

f 69/1/3 243/1/3 211/1/3 41/1/3

f 83/1/3 257/1/3 267/1/3 95/1/3

f 50/1/3 222/1/3 193/1/3 21/1/3

f 99/1/3 271/1/3 274/1/3 100/1/3

f 103/1/3 275/1/3 270/1/3 98/1/3

f 54/1/3 226/1/3 280/1/3 107/1/3

f 109/1/3 281/1/3 284/1/3 110/1/3

f 113/1/3 285/1/3 286/1/3 114/1/3

f 39/1/3 213/1/3 181/1/3 9/1/3

f 115/1/3 287/1/3 290/1/3 116/1/3

f 78/1/3 250/1/3 272/1/3 102/1/3

f 121/1/3 293/1/3 295/1/3 122/1/3

f 119/1/3 292/1/3 299/1/3 125/1/3

f 30/1/3 203/1/3 241/1/3 71/1/3

f 137/1/3 309/1/3 311/1/3 138/1/3

f 140/1/3 312/1/3 304/1/3 134/1/3

f 143/1/3 315/1/3 221/1/3 51/1/3

f 124/1/3 296/1/3 264/1/3 92/1/3

f 147/1/3 319/1/3 198/1/3 28/1/3

f 149/1/3 321/1/3 282/1/3 112/1/3

f 151/1/3 323/1/3 288/1/3 118/1/3

f 10/1/3 184/1/3 324/1/3 152/1/3

f 117/1/3 289/1/3 326/1/3 153/1/3

f 154/1/3 325/1/3 329/1/3 155/1/3

f 158/1/3 330/1/3 229/1/3 59/1/3

f 58/1/3 230/1/3 332/1/3 159/1/3

f 22/1/3 196/1/3 277/1/3 105/1/3

f 161/1/3 333/1/3 313/1/3 141/1/3

f 101/1/3 273/1/3 327/1/3 157/1/3

f 164/1/3 336/1/3 310/1/3 139/1/3

f 160/1/3 331/1/3 339/1/3 165/1/3

f 133/1/3 305/1/3 340/1/3 168/1/3

f 33/1/3 207/1/3 341/1/3 169/1/3

f 111/1/3 283/1/3 186/1/3 16/1/3

f 27/1/3 199/1/3 337/1/3 167/1/3

f 96/1/3 269/1/3 232/1/3 60/1/3

f 8/1/4 7/1/4 179/1/4 178/1/4

f 12/1/4 11/1/4 183/1/4 182/1/4

f 16/1/4 15/1/4 187/1/4 186/1/4

f 20/1/4 19/1/4 191/1/4 190/1/4

f 24/1/4 23/1/4 195/1/4 194/1/4

f 28/1/4 27/1/4 199/1/4 198/1/4

f 2/1/4 31/1/4 202/1/4 176/1/4

f 35/1/4 34/1/4 206/1/4 205/1/4

f 37/1/4 36/1/4 209/1/4 208/1/4

f 45/1/4 44/1/4 216/1/4 215/1/4

f 47/1/4 46/1/4 219/1/4 218/1/4

f 51/1/4 50/1/4 222/1/4 221/1/4

f 55/1/4 54/1/4 226/1/4 225/1/4

f 59/1/4 58/1/4 230/1/4 229/1/4

f 63/1/4 62/1/4 234/1/4 233/1/4

f 67/1/4 66/1/4 238/1/4 237/1/4

f 71/1/4 70/1/4 242/1/4 241/1/4

f 75/1/4 74/1/4 246/1/4 245/1/4

f 79/1/4 78/1/4 250/1/4 249/1/4

f 82/1/4 64/1/4 236/1/4 253/1/4

f 36/1/4 87/1/4 258/1/4 209/1/4

f 92/1/4 75/1/4 245/1/4 264/1/4

f 84/1/4 93/1/4 265/1/4 256/1/4

f 97/1/4 96/1/4 269/1/4 268/1/4

f 98/1/4 24/1/4 194/1/4 270/1/4

f 102/1/4 101/1/4 273/1/4 272/1/4

f 65/1/4 104/1/4 276/1/4 239/1/4

f 112/1/4 111/1/4 283/1/4 282/1/4

f 40/1/4 12/1/4 182/1/4 212/1/4

f 118/1/4 117/1/4 289/1/4 288/1/4

f 120/1/4 119/1/4 292/1/4 291/1/4

f 123/1/4 80/1/4 252/1/4 294/1/4

f 106/1/4 38/1/4 210/1/4 278/1/4

f 134/1/4 133/1/4 305/1/4 304/1/4

f 139/1/4 48/1/4 220/1/4 310/1/4

f 141/1/4 109/1/4 281/1/4 313/1/4

f 86/1/4 142/1/4 314/1/4 259/1/4

f 81/1/4 103/1/4 275/1/4 254/1/4

f 73/1/4 145/1/4 316/1/4 247/1/4

f 146/1/4 42/1/4 214/1/4 318/1/4

f 148/1/4 5/1/4 177/1/4 320/1/4

f 150/1/4 17/1/4 189/1/4 322/1/4

f 77/1/4 99/1/4 271/1/4 251/1/4

f 11/1/4 147/1/4 319/1/4 183/1/4

f 100/1/4 154/1/4 325/1/4 274/1/4

f 157/1/4 156/1/4 328/1/4 327/1/4

f 152/1/4 25/1/4 197/1/4 324/1/4

f 26/1/4 160/1/4 331/1/4 200/1/4

f 23/1/4 68/1/4 240/1/4 195/1/4

f 162/1/4 149/1/4 321/1/4 334/1/4

f 125/1/4 163/1/4 335/1/4 299/1/4

f 122/1/4 143/1/4 315/1/4 295/1/4

f 167/1/4 166/1/4 338/1/4 337/1/4

f 44/1/4 113/1/4 285/1/4 216/1/4

f 110/1/4 13/1/4 185/1/4 284/1/4

f 18/1/4 170/1/4 342/1/4 192/1/4

f 6/1/4 171/1/4 343/1/4 180/1/4

f 172/1/4 63/1/4 233/1/4 344/1/4

f 1/1/5 4/1/5 174/1/5 173/1/5

f 5/1/5 8/1/5 178/1/5 177/1/5

f 13/1/5 16/1/5 186/1/5 185/1/5

f 17/1/5 20/1/5 190/1/5 189/1/5

f 25/1/5 28/1/5 198/1/5 197/1/5

f 29/1/5 2/1/5 176/1/5 201/1/5

f 32/1/5 35/1/5 205/1/5 204/1/5

f 4/1/5 37/1/5 208/1/5 174/1/5

f 38/1/5 41/1/5 211/1/5 210/1/5

f 42/1/5 45/1/5 215/1/5 214/1/5

f 48/1/5 51/1/5 221/1/5 220/1/5

f 56/1/5 59/1/5 229/1/5 228/1/5

f 64/1/5 67/1/5 237/1/5 236/1/5

f 68/1/5 71/1/5 241/1/5 240/1/5

f 76/1/5 79/1/5 249/1/5 248/1/5

f 80/1/5 82/1/5 253/1/5 252/1/5

f 46/1/5 85/1/5 255/1/5 219/1/5

f 88/1/5 89/1/5 261/1/5 260/1/5

f 90/1/5 91/1/5 263/1/5 262/1/5

f 89/1/5 92/1/5 264/1/5 261/1/5

f 93/1/5 60/1/5 232/1/5 265/1/5

f 85/1/5 97/1/5 268/1/5 255/1/5

f 50/1/5 98/1/5 270/1/5 222/1/5

f 99/1/5 102/1/5 272/1/5 271/1/5

f 103/1/5 65/1/5 239/1/5 275/1/5

f 54/1/5 43/1/5 217/1/5 226/1/5

f 109/1/5 112/1/5 282/1/5 281/1/5

f 113/1/5 105/1/5 277/1/5 285/1/5

f 115/1/5 118/1/5 288/1/5 287/1/5

f 78/1/5 120/1/5 291/1/5 250/1/5

f 121/1/5 123/1/5 294/1/5 293/1/5

f 119/1/5 127/1/5 297/1/5 292/1/5

f 127/1/5 129/1/5 300/1/5 297/1/5

f 129/1/5 114/1/5 286/1/5 300/1/5

f 131/1/5 134/1/5 304/1/5 303/1/5

f 70/1/5 136/1/5 307/1/5 242/1/5

f 136/1/5 131/1/5 303/1/5 307/1/5

f 137/1/5 139/1/5 310/1/5 309/1/5

f 140/1/5 141/1/5 313/1/5 312/1/5

f 31/1/5 86/1/5 259/1/5 202/1/5

f 143/1/5 81/1/5 254/1/5 315/1/5

f 34/1/5 73/1/5 247/1/5 206/1/5

f 91/1/5 146/1/5 318/1/5 263/1/5

f 147/1/5 148/1/5 320/1/5 319/1/5

f 149/1/5 150/1/5 322/1/5 321/1/5

f 151/1/5 77/1/5 251/1/5 323/1/5

f 117/1/5 100/1/5 274/1/5 289/1/5

f 154/1/5 157/1/5 327/1/5 325/1/5

f 158/1/5 152/1/5 324/1/5 330/1/5

f 58/1/5 26/1/5 200/1/5 230/1/5

f 161/1/5 162/1/5 334/1/5 333/1/5

f 101/1/5 125/1/5 299/1/5 273/1/5

f 164/1/5 122/1/5 295/1/5 336/1/5

f 160/1/5 167/1/5 337/1/5 331/1/5

f 133/1/5 110/1/5 284/1/5 305/1/5

f 111/1/5 18/1/5 192/1/5 283/1/5

f 27/1/5 6/1/5 180/1/5 199/1/5

f 96/1/5 172/1/5 344/1/5 269/1/5

f 2/1/6 176/1/6 175/1/6 3/1/6

f 6/1/6 180/1/6 179/1/6 7/1/6

f 14/1/6 188/1/6 187/1/6 15/1/6

f 18/1/6 192/1/6 191/1/6 19/1/6

f 26/1/6 200/1/6 199/1/6 27/1/6

f 40/1/6 212/1/6 219/1/6 46/1/6

f 49/1/6 223/1/6 222/1/6 50/1/6

f 53/1/6 227/1/6 226/1/6 54/1/6

f 57/1/6 231/1/6 230/1/6 58/1/6

f 61/1/6 235/1/6 234/1/6 62/1/6

f 65/1/6 239/1/6 238/1/6 66/1/6

f 73/1/6 247/1/6 246/1/6 74/1/6

f 77/1/6 251/1/6 250/1/6 78/1/6

f 81/1/6 254/1/6 236/1/6 64/1/6

f 86/1/6 259/1/6 258/1/6 87/1/6

f 35/1/6 205/1/6 244/1/6 72/1/6

f 94/1/6 266/1/6 235/1/6 61/1/6

f 95/1/6 267/1/6 265/1/6 93/1/6

f 84/1/6 256/1/6 269/1/6 96/1/6

f 100/1/6 274/1/6 273/1/6 101/1/6

f 98/1/6 270/1/6 276/1/6 104/1/6

f 106/1/6 278/1/6 243/1/6 69/1/6

f 107/1/6 280/1/6 279/1/6 108/1/6

f 110/1/6 284/1/6 283/1/6 111/1/6

f 116/1/6 290/1/6 289/1/6 117/1/6

f 102/1/6 272/1/6 292/1/6 119/1/6

f 122/1/6 295/1/6 252/1/6 80/1/6

f 125/1/6 299/1/6 298/1/6 126/1/6

f 126/1/6 298/1/6 301/1/6 128/1/6

f 128/1/6 301/1/6 296/1/6 124/1/6

f 71/1/6 241/1/6 302/1/6 130/1/6

f 132/1/6 306/1/6 305/1/6 133/1/6

f 47/1/6 218/1/6 308/1/6 135/1/6

f 135/1/6 308/1/6 306/1/6 132/1/6

f 138/1/6 311/1/6 220/1/6 48/1/6

f 134/1/6 304/1/6 281/1/6 109/1/6

f 130/1/6 302/1/6 314/1/6 142/1/6

f 51/1/6 221/1/6 275/1/6 103/1/6

f 92/1/6 264/1/6 213/1/6 39/1/6

f 144/1/6 317/1/6 316/1/6 145/1/6

f 55/1/6 225/1/6 214/1/6 42/1/6

f 28/1/6 198/1/6 177/1/6 5/1/6

f 112/1/6 282/1/6 189/1/6 17/1/6

f 118/1/6 288/1/6 271/1/6 99/1/6

f 152/1/6 324/1/6 319/1/6 147/1/6

f 153/1/6 326/1/6 325/1/6 154/1/6

f 155/1/6 329/1/6 328/1/6 156/1/6

f 59/1/6 229/1/6 197/1/6 25/1/6

f 159/1/6 332/1/6 331/1/6 160/1/6

f 141/1/6 313/1/6 321/1/6 149/1/6

f 157/1/6 327/1/6 335/1/6 163/1/6

f 139/1/6 310/1/6 315/1/6 143/1/6

f 165/1/6 339/1/6 338/1/6 166/1/6

f 108/1/6 279/1/6 285/1/6 113/1/6

f 168/1/6 340/1/6 185/1/6 13/1/6

f 169/1/6 341/1/6 317/1/6 144/1/6

f 16/1/6 186/1/6 342/1/6 170/1/6

f 167/1/6 337/1/6 343/1/6 171/1/6

# numNormals 6
# numTexCoords 1
# numVerts 344
# numFaces 384
